<?xml version="1.0" encoding="utf-8"?>
<!-- Generator: Adobe Illustrator 23.1.1, SVG Export Plug-In . SVG Version: 6.00 Build 0)  -->
<svg version="1.1" id="Layer_1" xmlns="http://www.w3.org/2000/svg" xmlns:xlink="http://www.w3.org/1999/xlink" x="0px" y="0px"
	 viewBox="0 0 1120 807" style="enable-background:new 0 0 1120 807;" xml:space="preserve">
<style type="text/css">
	.st0{fill:#535353;}
	.st1{fill:#565656;}
	.st2{fill:#595959;}
	.st3{fill:#7E7E7E;}
	.st4{fill:#646464;}
	.st5{fill:#5A5A5A;}
	.st6{fill:#434343;}
	.st7{fill:#898989;}
	.st8{fill:#5E5E5E;}
	.st9{fill:#707070;}
	.st10{fill:#7A7A7A;}
	.st11{fill:#868686;}
	.st12{fill:#505050;}
	.st13{fill:#444444;}
	.st14{fill:#939393;}
	.st15{fill:#717171;}
	.st16{fill:#222222;}
	.st17{fill:#6F6F6F;}
	.st18{fill:#4D4D4D;}
	.st19{fill:#2D2D2D;}
	.st20{fill:#777777;}
	.st21{fill:#8A8A8A;}
	.st22{fill:#686868;}
	.st23{fill:#494949;}
	.st24{fill:#727272;}
	.st25{fill:#787878;}
	.st26{fill:#5D5D5D;}
	.st27{fill:#7D7D7D;}
	.st28{fill:#383838;}
	.st29{fill:#696969;}
	.st30{fill:#666666;}
	.st31{fill:#606060;}
	.st32{fill:#6E6E6E;}
	.st33{fill:#585858;}
	.st34{fill:#626262;}
	.st35{fill:#767676;}
	.st36{fill:#3E3E3E;}
	.st37{fill:#808080;}
	.st38{fill:#CACACA;}
	.st39{fill:#C8C8C8;}
	.st40{fill:#C3C3C3;}
	.st41{fill:#A2A2A2;}
	.st42{fill:#F9F9F9;}
	.st43{fill:#E0E0E0;}
	.st44{fill:#DFDFDF;}
	.st45{fill:#474747;}
	.st46{fill:#3D3D3D;}
	.st47{fill:#343434;}
</style>
<path class="st0" d="M803.64,613.14c0.06-1.29,0.18-2.58,0.18-3.86c0.01-28.85,0.01-57.69,0.01-86.54c0-3.76,0.01-3.77,3.3-2.07
	c26.69,13.76,53.39,27.51,80.08,41.27c0.81,0.42,1.6,0.87,2.46,1.34c-0.72,1.25-1.94,1.56-2.93,2.14
	c-26.66,15.38-53.33,30.73-79.99,46.1c-0.88,0.5-1.7,1.09-2.56,1.63C804.01,613.14,803.82,613.14,803.64,613.14z"/>
<path class="st1" d="M510.75,473.93c12.6-7.16,25.18-14.35,37.8-21.49c19.95-11.28,39.92-22.52,59.88-33.77
	c0.88-0.5,1.81-0.91,2.71-1.36c1.06,0.81,0.81,1.99,0.82,3.06c0.04,3.6,0.01,7.19,0.02,10.79c0,7.76,0,15.52,0,23.29
	c0.01,9.89,0,19.79,0,29.68c-0.01,0.88,0.02,1.77-0.06,2.65c-0.89,5.4-0.39,10.84-0.48,16.26c-0.07,4.42-0.01,8.83-0.02,13.25
	c0,1.29,0.08,2.59-0.72,3.72c-0.49,0.23-0.98,0.43-1.49,0.58c-3.02,0.39-6.06,0.16-9.09,0.17c-12.41,0.03-24.82,0.01-37.23,0.01
	c-12.47,0-24.93,0-37.4-0.01c-1.2,0-2.4,0.12-3.58-0.2c-1.85-1.05-1.38-2.89-1.4-4.47c-0.09-9.42-0.2-18.85,0.03-28.26
	c0.1-4.21-1.18-7.13-5.05-8.89c-1.34-0.61-2.54-1.5-3.77-2.32C510.73,475.99,509.88,475.24,510.75,473.93z"/>
<path class="st2" d="M799.68,317.88c-0.85,0.56-1.67,1.14-2.52,1.67c-26.68,16.73-53.37,33.45-80.05,50.17
	c-0.47,0.29-0.95,0.58-1.41,0.88c-1.18,0.78-1.89,0.66-1.85-0.95c0.01-0.55-0.01-1.11-0.01-1.66c0-31.69,0-63.37,0-95.06
	c0-3.68,0.02-3.69,3.12-1.95c26.66,14.94,53.33,29.88,79.98,44.84C797.88,316.35,799.01,316.65,799.68,317.88z"/>
<path class="st3" d="M623.44,319.36c2.33-1.32,4.32-2.46,6.32-3.58c25.55-14.32,51.09-28.63,76.64-42.95
	c3.02-1.69,3.11-1.65,3.11,1.76c0.01,31.69,0.01,63.39-0.01,95.08c0,0.97,0.45,2.27-0.53,2.83c-1,0.57-1.84-0.54-2.66-1.06
	c-26.78-16.76-53.55-33.55-80.32-50.33C625.22,320.64,624.5,320.1,623.44,319.36z"/>
<path class="st4" d="M695.46,370.74c1.98,0.28,1.14,1.86,1.14,2.83c0.04,19.03,0.02,38.07,0.01,57.1
	c-0.01,11.27-0.13,22.55,0.06,33.82c0.05,3.15-0.88,4.91-3.64,6.54c-26.97,15.9-53.85,31.97-80.75,47.98
	c-1.62-0.38-1.1-1.73-1.11-2.71c-0.07-4.14-0.03-8.28-0.03-12.42c0.08-6.48-0.21-12.97,0.28-19.45c0-9.96,0-19.91,0-29.86
	c0.01-6.42-0.02-12.84,0.02-19.25c0.6-5.76,0.06-11.54,0.3-17.29c1.29-2.41,2.84-0.85,4.11-0.11c5.51,3.21,10.91,6.6,16.35,9.93
	c19.16,11.71,38.33,23.42,57.5,35.12c1.28,0.78,2.61,2.47,4.15,1.63c1.57-0.86,0.74-2.87,0.78-4.37c0.18-7.02-0.25-14.05,0.32-21.07
	c-0.54-8.58-0.39-17.15-0.08-25.72c-0.33-5.7-0.3-11.4-0.09-17.1c-0.05-8.21-0.53-16.43,0.28-24.64
	C695.08,371.32,695.22,371.01,695.46,370.74z"/>
<path class="st2" d="M972.36,210.17c-29.65,18.2-59.09,36.27-88.38,54.25c-0.69-0.19-0.76-0.56-0.75-0.93
	c0.91-19.48,1.82-38.97,2.75-58.45c0.58-12.19,1.23-24.37,1.75-36.56c0.1-2.38,0.71-2.54,2.7-1.5
	c26.66,14.03,53.35,27.99,80.04,41.97C971.03,209.25,971.54,209.64,972.36,210.17z"/>
<path class="st5" d="M880.16,267.16c-27.59-16.55-54.67-32.8-81.86-49.1c0.49-1.16,1.53-1.44,2.33-1.92
	c26.99-15.9,53.99-31.78,81-47.65c0.84-0.49,1.73-1.6,2.68-1.07c0.98,0.55,0.42,1.86,0.38,2.82c-1.35,30.56-2.72,61.12-4.11,91.68
	C880.52,263.48,880.34,265.04,880.16,267.16z"/>
<path class="st6" d="M611.65,261.66c-0.33-15.52-0.66-31.05-0.97-46.57c-0.02-0.87-0.5-2.08,0.37-2.53c0.84-0.43,1.64,0.59,2.4,1.05
	c26.85,16.48,53.69,32.98,80.52,49.48c2.68,1.65,2.68,1.68,0.01,3.19c-26.22,14.81-52.44,29.62-78.66,44.43
	c-2.62,1.48-2.7,1.47-2.77-1.64c-0.34-15.8-0.65-31.6-0.96-47.4C611.62,261.66,611.63,261.66,611.65,261.66z"/>
<path class="st7" d="M510.75,473.93c2,2.57,5.05,3.67,7.76,5.1c2.62,1.39,3.41,3.11,3.38,5.94c-0.13,11.64-0.06,23.27-0.06,34.91
	c0.24,0.27,0.46,0.56,0.66,0.87c0.68,1.27,0.69,2.66,0.69,4.04c0.03,14.64,0.02,29.27,0.01,43.91c0,1.58-0.22,3.11-0.71,4.61
	c-0.67,0.64-0.97,2.09-2.38,1.06c-5.32-7.46-9.71-15.5-14.54-23.27c-10.09-16.23-19.7-32.75-29.85-48.95
	c-13.43-21.44-26.21-43.28-39.52-64.79c-1.3-2.1-1.8-4.41-2.49-6.69c1.28-0.76,2.01,0.43,2.84,0.91
	c23.32,13.51,46.62,27.07,69.93,40.61C507.8,472.95,509.03,474.05,510.75,473.93z"/>
<path class="st8" d="M804.5,515.41c0.46-0.9,1.4-1.16,2.17-1.6c27.09-15.36,54.18-30.72,81.27-46.07c2.82-1.6,2.84-1.59,2.84,1.67
	c0,29.12,0,58.24,0,87.36c0,3.46-0.02,3.48-3,1.94c-27.11-13.96-54.21-27.92-81.31-41.89C805.76,516.46,804.87,516.3,804.5,515.41z"
	/>
<path class="st9" d="M980.6,510.77c-0.44,1-1.32,1.21-2.01,1.61c-26.91,15.51-53.82,31.01-80.74,46.51
	c-3.04,1.75-3.06,1.75-3.06-1.69c0-29.13-0.01-58.25,0-87.38c0-3.36,0.04-3.39,2.9-1.92c27.04,13.92,54.07,27.84,81.1,41.77
	C979.41,509.99,980,510.4,980.6,510.77z"/>
<path class="st10" d="M433.69,430.66c8.39,13.81,16.75,27.64,25.18,41.42c8.86,14.49,17.84,28.91,26.69,43.41
	c11.4,18.68,22.72,37.4,34.08,56.1c0.52,0.86,1.25,1.68,0.47,2.76c-7.18-4.36-14.37-8.71-21.54-13.08
	c-20.66-12.61-41.29-25.25-62-37.79c-2.13-1.29-3.04-2.64-3.03-5.23c0.1-28.18,0.06-56.36,0.07-84.54
	C433.6,432.69,433.66,431.67,433.69,430.66z"/>
<path class="st11" d="M986.64,357.58c0,14.51,0,29.02,0,43.52c0,3.36-0.04,3.37-2.85,1.86c-25.3-13.62-50.6-27.23-75.89-40.87
	c-0.95-0.51-2.56-0.75-2.6-1.79c-0.04-1.26,1.63-1.55,2.61-2.15c25.01-15.23,50.04-30.44,75.07-45.65c0.63-0.38,1.27-0.76,1.91-1.13
	c1.19-0.69,1.71-0.24,1.73,1.02c0.02,0.74,0.02,1.48,0.02,2.22C986.64,328.93,986.64,343.25,986.64,357.58z"/>
<path class="st12" d="M715.51,266.69c52.8,0.85,105.6,1.7,158.41,2.55c0.27,1.16-0.7,1.26-1.23,1.6
	c-22.92,14.74-45.86,29.45-68.77,44.2c-1.22,0.79-2.19,0.93-3.53,0.17c-28.15-15.89-56.33-31.73-84.5-47.59
	c-0.16-0.09-0.29-0.23-0.43-0.34C715.48,267.09,715.5,266.89,715.51,266.69z"/>
<path class="st13" d="M716.05,263.96c0.62-0.37,1.23-0.75,1.86-1.11c24.54-14.2,49.09-28.39,73.61-42.63
	c1.52-0.88,2.65-1.08,4.27-0.12c25.39,14.96,50.82,29.84,76.24,44.74c0.54,0.32,1.04,0.71,1.5,1.76
	c-52.44-0.67-104.88-1.35-157.32-2.02C716.16,264.38,716.1,264.17,716.05,263.96z"/>
<path class="st0" d="M898.31,395.18c-17.6-0.2-35.21-0.39-53-0.59c0.58-1.34,1.65-1.56,2.48-2.03
	c15.91-9.18,31.84-18.33,47.75-27.52c1.14-0.66,2.27-1.26,3.2-2.44c0.79-1,2.68-0.83,4.12,0.01c19.19,11.24,38.38,22.5,57.61,33.68
	c7.34,4.27,14.76,8.4,22.2,12.51c1.77,0.98,2,1.54,0.09,2.6c-3.15,1.74-6.2,3.64-9.29,5.48c-6.96,0-13.69-1.73-20.49-2.84
	c-9.72-1.59-19.45-3.14-29.14-5c-6.68-1.28-13.49-1.94-20.19-3.2c-1.81-0.34-3.65-0.7-4.76-2.43
	C898.35,400.68,899.45,397.86,898.31,395.18z"/>
<path class="st14" d="M799.2,425.63c1.02,0.66,0.52,1.68,0.52,2.52c0.01,29.12,0,58.24-0.02,87.37c0,3.64-0.15,3.71-3.23,2.05
	c-25.31-13.63-50.63-27.24-75.94-40.87c-0.8-0.43-2.1-0.62-2.19-1.5c-0.12-1.17,1.31-1.37,2.13-1.87
	c8.06-4.88,16.15-9.72,24.23-14.58c13.98-0.74,27.98-1.11,41.98-1.28c2.2-0.03,4.39-0.47,6.61-0.52c3.46-0.07,4.46-1.07,4.51-4.51
	c0.09-7.19,0.02-14.39,0.03-21.58C797.83,428.98,797.95,427.16,799.2,425.63z"/>
<path class="st15" d="M522.48,573.29c-0.86-1.24-0.66-2.66-0.66-4.03c-0.01-16.25-0.01-32.51-0.01-48.76
	c0.95-0.55,1.99-0.28,2.99-0.28c12.67-0.02,25.33-0.01,38-0.01c14.56,0,29.11,0.01,43.67-0.01c0.99,0,2.03,0.25,2.98-0.26
	c0.35-0.02,0.71-0.04,1.06-0.05c0.15,0.11,0.21,0.22,0.17,0.34c-0.04,0.13-0.08,0.19-0.13,0.19c-14.07,8.49-28.12,17.01-42.2,25.46
	C553.09,555.05,537.78,564.16,522.48,573.29z"/>
<path class="st16" d="M611.74,343.51c0-8.75,0-17.49,0-26.26c1.09-0.09,1.69,0.57,2.36,0.98c26.81,16.54,53.62,33.09,80.38,49.72
	c0.56,0.35,3.38,0.44,1.03,2.35c-1.01,1.73-2.42,2.87-4.35,3.54c-2.95,1.04-5.33,3.2-8.21,4.42c-1.01,0.43-1.91,1.1-3.09,0.96
	c-12.2-5.91-24.19-12.23-36.33-18.24c-9.42-4.66-18.69-9.61-28.09-14.32C613.92,345.91,612.58,345.02,611.74,343.51z"/>
<path class="st17" d="M778.09,408.48c3.25,0.89,5.87,3,8.77,4.55c4.29,2.3,8.51,4.75,13.36,7.48c-6.89,4.14-13.32,8-19.75,11.87
	c-2.87,0.61-5.79,0.6-8.7,0.77c-10.98,0.62-21.99,0.17-32.96,0.66c-6.27,0.28-12.56,0.01-18.81,0.76c-0.37,0.04-0.74,0.03-1.11,0.02
	c-4.77-0.23-4.89-0.32-4.85-5.12c0.05-6.28-0.17-12.56,0.12-18.84c0.85-1.24,2.2-1.17,3.47-1.33c9.11-1.09,18.25-0.41,27.38-0.56
	c9.12-0.15,18.23-0.73,27.35-0.97C774.35,407.71,776.15,408.56,778.09,408.48z"/>
<path class="st18" d="M732.69,379.55c-4.87-2.55-9.75-5.1-15.24-7.97c10.04-6.03,19.55-11.74,29.05-17.45
	c1.89,0.69,3.84,0.24,5.73,0.16c8.74-0.4,17.49-0.23,26.21-0.61c5.6-0.25,11.22-0.14,16.81-0.74c1.77-0.19,3.33-0.02,4.17,1.83
	c0.11,7.1,0.04,14.2,0.04,21.31c0,2.8-0.91,3.29-3.7,3.47c-9.57,0.59-19.17-0.09-28.73,0.62c-2.12,0.16-4.23,0.22-6.36,0.23
	c-7.01,0.03-14.02-0.14-21.01,0.3C737.23,380.84,734.93,380.4,732.69,379.55z"/>
<path class="st19" d="M611.74,343.51c5.03,1.85,9.58,4.7,14.39,7.02c7.37,3.55,14.59,7.42,21.88,11.14
	c9.76,4.98,19.52,9.93,29.27,14.93c0.97,0.5,1.81,1.25,2.71,1.89c-0.8,2.67-3.26,3.47-5.35,4.55c-3.23,1.68-6.38,3.5-9.59,5.2
	c-3.47,1.83-6.87,3.8-10.74,4.7c-9.34-4.74-18.56-9.69-28-14.22c-3.73-1.79-7.2-4.08-11.09-5.55c-1.55-0.58-2.5-1.82-3.48-3.03
	C611.74,361.26,611.74,352.38,611.74,343.51z"/>
<path class="st20" d="M714.38,410.62c-0.01,6.55,0.01,13.11-0.07,19.66c-0.02,1.78,0.34,2.67,2.43,2.65
	c6.44-0.05,12.87-0.01,19.3-0.45c4.41-0.3,8.85-0.13,13.28-0.21c8.94-0.17,17.88-0.37,26.82-0.55c1.48-0.03,2.96-0.05,4.34,0.64
	c-8.16,5.06-16.3,10.15-24.47,15.18c-13.06,8.03-26.15,16.03-39.23,24.02c-0.76,0.46-1.53,1.47-2.41,1.06
	c-0.95-0.45-0.47-1.66-0.47-2.52c-0.04-31.41-0.07-62.82-0.03-94.23c0-0.99-0.99-2.59,1.03-2.99c0.75,1.35,0.78,2.83,0.79,4.31
	c0.01,4.9,0.1,9.8-0.1,14.69c0.2,4.98,0.12,9.96,0.08,14.95C715.64,408.22,715.62,409.63,714.38,410.62z"/>
<path class="st1" d="M732.69,379.55c18.73-0.58,37.46-1.01,56.19-1.15c2.56-0.02,5.1-0.66,7.72-0.3c2.14,0.29,2.6-1.18,2.59-3
	c-0.03-6.84-0.03-13.68-0.04-20.51c-1.1-1.15-1.28-2.6-1.29-4.09c-0.06-8.01-0.04-16.03-0.01-24.04c0-1.41,0.44-2.7,0.8-4.02
	c0.44-0.33,0.89-0.43,0.99,0.25c0.11,0.73,0.09,1.47,0.09,2.21c-0.01,29.21-0.02,58.42-0.04,87.62c0,3.22-0.02,3.23-2.88,1.69
	c-20.67-11.11-41.34-22.23-62.01-33.35C734.07,380.47,733.39,379.99,732.69,379.55z"/>
<path class="st7" d="M701.01,226.52c0,8.13-0.05,16.26,0.03,24.38c0.02,2.28-0.41,2.8-2.57,1.56
	c-13.46-7.72-26.95-15.37-40.48-22.97c-2.2-1.24-1.86-1.91,0.02-3.08c13.71-8.55,27.39-17.16,41.08-25.75
	c0.6-0.38,1.24-1.14,1.96-0.78c0.89,0.45,0.47,1.48,0.47,2.25c0.03,8.13,0.02,16.25,0.02,24.38
	C701.36,226.52,701.18,226.52,701.01,226.52z"/>
<path class="st7" d="M1009.19,324.49c0.65,0.37,1.22,0.67,1.77,1.01c13.54,8.46,27.09,16.93,40.62,25.4
	c2.61,1.63,2.6,1.68-0.17,3.25c-13.34,7.54-26.68,15.08-40.02,22.62c-2.62,1.48-2.87,1.36-2.89-1.69
	c-0.12-16.07-0.21-32.13-0.28-48.2C1008.21,326.03,1007.75,324.81,1009.19,324.49z"/>
<path class="st21" d="M799.2,425.63c0,9.68,0,19.37-0.02,29.05c-0.01,3.45-0.21,3.59-3.56,3.68c-12.69,0.36-25.39,0.6-38.08,1.22
	c-3.1,0.15-6.23-0.33-9.32,0.36c-1.31,0.29-2.55-0.2-3.53-1.19c7.6-5.19,15.66-9.63,23.5-14.43
	C778.49,438.02,788.86,431.85,799.2,425.63z"/>
<path class="st22" d="M714.38,410.62c0-6.29,0-12.57,0.01-18.86c1.8-1.92,4.27-1.7,6.49-1.67c4.9,0.07,9.78-0.19,14.66-0.36
	c3.5-0.13,6.92,0.21,10.38,0.47c6.83,3.55,13.51,7.37,20.09,11.36c3.97,2.41,8.06,4.62,12.09,6.92c-5.07,1.11-10.24,0.8-15.37,1.08
	c-12.99,0.7-25.98,0.42-38.98,0.57C720.62,410.16,717.52,410.87,714.38,410.62z"/>
<path class="st23" d="M798.65,322.43c0.55,0.91,0.54,1.93,0.54,2.94c-0.01,9.74-0.02,19.48-0.03,29.22
	c-5.5-0.38-10.99,0.05-16.49,0.28c-0.64,0.03-1.27,0.24-1.91,0.25c-10.49,0.21-20.97,0.4-31.46,0.58c-1.21,0.02-2.49,0.07-2.79-1.57
	c6.54-4.44,13.42-8.33,20.18-12.41C777.33,335.28,787.99,328.86,798.65,322.43z"/>
<path class="st24" d="M908.44,461.06c5.39-3.59,10.97-6.87,16.6-10.06c7.78,0.23,15.24,2.53,22.9,3.59
	c10.68,1.47,21.23,3.74,31.91,5.21c1.64,0.23,3.31,0.48,4.32,2.07c0.07,4.12,0.06,8.23,0.01,12.34c-1.18,1.98-3,1.43-4.7,1.13
	c-11.55-2.05-23.12-3.97-34.69-5.88c-10.66-1.76-21.33-3.46-31.96-5.41C911.12,463.74,908.39,464.25,908.44,461.06z"/>
<path class="st25" d="M908.44,461.06c2.21,1.85,5.02,1.71,7.6,2.15c21.6,3.72,43.21,7.35,64.82,10.99c0.99,0.17,2.02,0.15,3.02,0.22
	c0.74,3.45,0.27,6.95,0.26,10.42c0,1.95-1.61,1.89-3.07,1.71c-5.12-0.65-10.2-1.58-15.27-2.5c-11.51-2.09-23.11-3.67-34.59-5.94
	c-2.21-0.44-4.34-1.27-6.61-1.45c-6.88-3.65-13.76-7.31-20.66-10.93c-1.38-0.73-1.3-1.3-0.01-2.02
	C905.45,462.85,906.94,461.94,908.44,461.06z"/>
<path class="st26" d="M899.07,403.42c23.12,4.21,46.32,7.97,69.51,11.78c1.69,0.28,3.55,0.25,4.88,1.67
	c-4.63,3.19-9.45,6.09-14.37,8.83c-1.58,0.3-3.18,0.28-4.75,0.02c-17.21-2.9-34.42-5.78-51.64-8.61c-1.61-0.27-3.05-0.71-3.89-2.25
	C898.92,411.04,898.42,407.22,899.07,403.42z"/>
<path class="st27" d="M924.6,476.65c2.87-1.2,5.66-0.11,8.45,0.35c15.85,2.65,31.69,5.37,47.53,8.04c3.14,0.53,3.31,0.35,3.33-2.85
	c0.02-2.59-0.02-5.18-0.03-7.76c0-4.26-0.01-8.51-0.01-12.77c-1.15-0.91-1.24-2.2-1.27-3.51c-0.07-3.05-0.07-6.1,0.07-9.15
	c-0.12-3.76-0.16-7.51-0.12-11.27c0.08-5.78-0.03-11.57,0.01-17.35c0.01-1.87,0.13-3.68,1.35-5.22c0.82,0.61,0.56,1.51,0.56,2.3
	c-0.02,29.55-0.06,59.11-0.07,88.66c0,1.75,0.01,3.01-2.36,1.73c-18.83-10.21-37.7-20.36-56.55-30.53
	C925.16,477.13,924.89,476.87,924.6,476.65z"/>
<path class="st28" d="M611.74,370.14c3.01,1.33,6.09,2.54,9.03,4.02c9.85,4.95,19.67,9.96,29.46,15.03
	c1.59,0.82,3.45,1.43,4.21,3.34c-0.09,2.3-2.09,2.84-3.6,3.69c-3.35,1.88-6.93,3.32-10.14,5.48c-1.54,1.03-3.39,1.39-5.14,1.97
	c-1.28-0.09-2.52-0.42-3.63-1.03c-5.82-3.15-11.8-5.98-17.72-8.92c-1.13-0.56-1.77-1.54-2.47-2.48
	C611.74,384.19,611.74,377.16,611.74,370.14z"/>
<path class="st29" d="M983.87,448.9c0,4.25,0,8.5,0.01,12.76c-7.81-0.76-15.51-2.2-23.24-3.49c-10.36-1.73-20.69-3.6-31.03-5.44
	c-1.62-0.29-3.32-0.44-4.57-1.73c5.39-3.3,10.77-6.61,16.16-9.91c13.24,1.71,26.35,4.19,39.51,6.36
	C981.89,447.64,983.09,447.8,983.87,448.9z"/>
<path class="st4" d="M658.27,184.65c0-5.35,0.05-10.7-0.03-16.05c-0.03-2.01,0.55-2.22,2.19-1.24c9.4,5.68,18.82,11.34,28.26,16.95
	c1.71,1.02,1.26,1.52-0.15,2.34c-9.03,5.22-18.05,10.46-27.01,15.8c-2.11,1.25-2.24,0.27-2.23-1.46c0.03-5.44,0.01-10.89,0.01-16.33
	C658.97,184.65,658.62,184.65,658.27,184.65z"/>
<path class="st30" d="M899.08,415.07c18.7,3.13,37.4,6.27,56.1,9.36c1.39,0.23,2.69,0.58,3.91,1.26c-4.08,2.85-8.34,5.4-12.69,7.81
	c-5.04,0.91-9.91-0.56-14.78-1.3c-9.49-1.43-18.9-3.37-28.4-4.76c-1.59-0.23-3.36-0.35-4.38-1.98
	C898.89,422,898.45,418.52,899.08,415.07z"/>
<path class="st31" d="M983.87,448.9c-5.83-0.02-11.44-1.61-17.16-2.41c-7.45-1.04-14.86-2.44-22.28-3.68
	c-1.27-0.21-2.59-0.32-3.24-1.72c5.18-3.15,10.35-6.3,15.53-9.45c7.98,1.62,16.06,2.69,24.06,4.17c1.36,0.25,2.42,0.76,3.08,1.99
	C983.86,441.5,983.87,445.2,983.87,448.9z"/>
<path class="st32" d="M899.08,425.61c8.88,0.95,17.65,2.55,26.44,4.12c5.43,0.97,10.9,1.72,16.35,2.56
	c1.55,0.24,3.08,0.56,4.52,1.21c-4,2.79-8.17,5.29-12.44,7.63c-2.42,0.77-4.86,0.69-7.34,0.24c-7.88-1.43-15.76-2.81-23.68-4
	c-1.5-0.23-3.17-0.36-4.11-1.91C898.89,432.18,898.42,428.88,899.08,425.61z"/>
<path class="st33" d="M983.86,437.8c-7.66-1.32-15.33-2.61-22.98-3.99c-1.55-0.28-3.4-0.25-4.16-2.16c9.06-5.5,18.13-11,27.19-16.5
	C983.89,422.7,983.88,430.25,983.86,437.8z"/>
<path class="st34" d="M745.91,390.19c-2.98,1.27-6.16,0.83-9.25,0.95c-7.42,0.3-14.85,0.42-22.28,0.61
	c-0.01-5.22-0.03-10.44-0.04-15.66c0-1.11,0.09-2.2,0.55-3.22c6.57,3.18,12.83,6.9,19.11,10.6
	C737.93,385.79,741.85,388.11,745.91,390.19z"/>
<path class="st35" d="M899.08,435.59c8.09,0.63,15.99,2.45,23.99,3.67c3.64,0.56,7.25,1.24,10.88,1.87
	c-4.66,3.2-9.49,6.11-14.43,8.86c-2.99,0.82-5.86-0.05-8.78-0.52c-3.08-0.5-6.15-1.01-9.23-1.46c-1.57-0.23-2.69-1.01-2.68-2.59
	C898.85,442.14,898.42,438.85,899.08,435.59z"/>
<path class="st36" d="M611.74,391.22c7.27,2.96,14.16,6.67,21.06,10.37c0.89,0.48,1.82,0.86,2.74,1.28
	c0.32,1.74-1.24,2.17-2.19,2.72c-5.53,3.19-11.2,6.11-16.71,9.34c-1.47,0.86-3.06,1.58-4.87,1.15
	C611.75,407.79,611.75,399.51,611.74,391.22z"/>
<path class="st37" d="M899.08,435.59c-0.01,2.38,0.09,4.77-0.05,7.15c-0.15,2.58,0.75,3.71,3.49,4.08c5.71,0.76,11.47,1.4,17,3.18
	c-6.42,3.99-12.84,7.99-19.25,11.98c-1.12,0.7-1.71,0.47-1.7-0.92c0.01-0.74-0.01-1.48-0.01-2.21c-0.03-19.93-0.05-39.86-0.09-59.79
	c0-1.29-0.11-2.58-0.17-3.87c1.46,2.63,0.39,5.5,0.76,8.24c0,3.88,0,7.77,0.01,11.65c0,3.51,0,7.03,0.01,10.54
	C899.08,428.94,899.08,432.26,899.08,435.59z"/>
<path class="st38" d="M611.76,416.07c7.92-4.4,15.85-8.8,23.77-13.21c6.3-3.45,12.61-6.9,18.91-10.35
	c7.01-3.8,14.03-7.58,21.04-11.39c1.53-0.83,3-1.76,4.5-2.64c5.18-2.73,10.35-5.46,15.53-8.19c0.02,0.15,0.01,0.3-0.05,0.44
	c0.05,0.17,0.05,0.34,0,0.51c-0.09,1.12-0.74,1.81-1.69,2.34c-6.96,3.9-13.89,7.87-21.06,11.39c-5.21,3.25-10.63,6.12-16.13,8.85
	c-8.34,4.91-16.87,9.49-25.43,14.01c-5,2.84-10.03,5.63-15.12,8.3c-1.23,0.64-2.46,0.94-3.82,0.88c-0.28-0.01-0.5-0.14-0.64-0.38
	C611.64,416.46,611.7,416.27,611.76,416.07z"/>
<path class="st21" d="M610.56,520.42c-0.01-0.18-0.03-0.36-0.04-0.53c0.04-10.29,0.07-20.57,0.14-30.86
	c0.01-0.81,0.25-1.62,0.39-2.43c0.78,2.68,0.25,5.42,0.34,8.13c0.1,3.02,0.02,6.04,0.02,9.07c0.03,4.94-0.05,9.87,0.04,14.81
	c0.01,0.64,0.09,1.28-0.4,1.81l-0.25,0.02L610.56,520.42z"/>
<path class="st39" d="M612.11,417.35c-0.08,5.93,0.42,11.87-0.37,17.79c-0.78-1.22,0.04-2.65-0.51-3.9
	c-0.03-4.64-0.07-9.28-0.1-13.92c0.15-0.22,0.3-0.44,0.45-0.66c0,0,0.19,0.17,0.19,0.17C612.03,416.9,612.14,417.08,612.11,417.35z"
	/>
<path class="st40" d="M611.06,520.42c0.06-5.54,0.11-11.08,0.17-16.61c0.12,0,0.25,0.01,0.37,0.01c0.03,4.01,0.04,8.03,0.09,12.04
	c0.01,1.07-0.22,2.21,0.59,3.15C611.87,519.48,611.46,519.95,611.06,520.42z"/>
<path class="st21" d="M609.46,519.94c-0.92,0.55-1.93,0.54-2.95,0.53c-14.56-0.01-29.11-0.02-43.67-0.03
	c-0.22-0.11-0.29-0.21-0.21-0.32c0.07-0.1,0.15-0.15,0.22-0.15C578.39,519.97,593.92,519.96,609.46,519.94z"/>
<path class="st41" d="M562.85,519.98c0,0.16,0,0.31-0.01,0.47c-13.67,0.02-27.35,0.04-41.02,0.05c0-0.21,0.01-0.42,0.01-0.64
	C535.5,519.91,549.18,519.94,562.85,519.98z"/>
<path class="st42" d="M611.63,454.48c-0.01,9.97-0.02,19.95-0.03,29.92c-0.06,0.13-0.13,0.25-0.19,0.38
	c-0.07-0.12-0.14-0.25-0.2-0.37c0.01-9.98,0.02-19.95,0.03-29.93c0.06-0.13,0.13-0.25,0.19-0.38
	C611.49,454.24,611.56,454.36,611.63,454.48z"/>
<path class="st43" d="M611.63,454.48c-0.13,0-0.26,0-0.39,0c0-7.75,0-15.5,0-23.25c0.6,1.24,0.3,2.61,0.51,3.9
	C611.7,441.59,611.67,448.03,611.63,454.48z"/>
<path class="st44" d="M611.2,484.41c0.13,0,0.26-0.01,0.39-0.01c0,6.47,0,12.94,0,19.41c-0.13,0-0.25-0.01-0.38-0.01
	c-0.06-5.74-0.12-11.47-0.18-17.2C611.1,485.87,611.15,485.14,611.2,484.41z"/>
<path class="st45" d="M612.11,417.35c-0.11-0.18-0.22-0.35-0.33-0.53c6.27-3.32,12.54-6.65,18.81-9.97c1.85,0.25,3.54,0.97,5.2,1.8
	c13.99,7.06,28.04,14,41.96,21.2c4.83,2.5,9.65,5.02,14.57,7.34c1.45,0.68,2.7,1.56,3.67,2.84c0.01,8.41,0.03,16.81,0.01,25.22
	c-0.01,2.88-0.2,2.99-2.72,1.45c-26.25-16.02-52.49-32.05-78.73-48.07C613.77,418.16,612.92,417.77,612.11,417.35z"/>
<path class="st46" d="M695.99,440.04c-4.55-1.09-8.41-3.7-12.51-5.75c-16.56-8.27-33.06-16.67-49.58-25.03
	c-1.23-0.62-2.52-1.17-3.31-2.41c8.49-4.66,16.98-9.33,25.47-13.99c4.05,0.85,7.43,3.23,11.04,5.01c7.11,3.5,14.17,7.14,21.22,10.77
	c2.67,1.37,5.64,2.35,7.68,4.77C696,422.29,696,431.16,695.99,440.04z"/>
<path class="st47" d="M696.01,413.41c-1.59-0.13-3.04-0.69-4.44-1.4c-10.14-5.16-20.29-10.31-30.42-15.48
	c-1.88-0.96-3.83-1.83-5.08-3.66c5.37-2.92,10.74-5.84,16.11-8.76c2.01,0.32,3.84,1.09,5.62,2.08c4.88,2.71,9.89,5.19,14.9,7.66
	c1.25,0.61,2.39,1.34,3.33,2.38C696.01,401.95,696.01,407.68,696.01,413.41z"/>
<path class="st19" d="M696.02,396.22c-1.03,0-2.01-0.18-2.94-0.65c-6.46-3.32-12.92-6.64-19.37-9.96c-0.67-0.34-1.25-0.78-1.54-1.51
	c7.77-4.28,15.53-8.56,23.3-12.85c0.76,0.95,0.61,2.09,0.61,3.18C696.06,381.69,696.04,388.95,696.02,396.22z"/>
</svg>
